<svg xmlns="http://www.w3.org/2000/svg" viewBox="0 0 207.32 242.33"><defs><style>.cls-1{opacity:0.35;}.cls-2{fill:#635cc6;}.cls-3{fill:#5d44aa;}.cls-4{fill:#bc77e0;}.cls-5{fill:#9e61c6;}</style></defs><g id="Calque_2" data-name="Calque 2"><g id="Calque_2-2" data-name="Calque 2"><g class="cls-1"><path class="cls-2" d="M135.39,77.37c48.64,40.59,75.51,62,71.55,92.72a82.82,82.82,0,0,1-92.72,71.55C80.16,237.25,65,200.51,42.67,148.92,37,135.93-20,21.63,7.38,2.52,29.86-13.2,101.08,48.74,135.39,77.37Z"/></g><g class="cls-1"><path class="cls-2" d="M132.82,83.78c43.71,36.25,67.86,55.35,64.33,82.78-5.22,40.47-42.47,69-83.21,63.78-30.6-3.94-44.2-36.74-64.33-82.79C44.54,136-6.73,33.92,17.8,16.88,38,2.87,102,58.2,132.82,83.78Z"/></g><path class="cls-3" d="M131.6,106.76c1.69.21,3.35.51,5,.88a53.25,53.25,0,1,1-65,50c.05-1.62.19-3.25.4-4.89a53.22,53.22,0,0,1,59.63-46Z"/><path class="cls-4" d="M130.89,110.67c1.56.21,3.1.48,4.6.82a49.28,49.28,0,0,1-10.75,97.34,48.33,48.33,0,0,1-6.44-.41,49.27,49.27,0,0,1-42.95-50.64c.05-1.5.17-3,.37-4.53a49.25,49.25,0,0,1,55.17-42.58Z"/><path class="cls-5" d="M173.25,151.66a48.76,48.76,0,0,1,.22,14.19,49.28,49.28,0,0,1-48.73,43,49.29,49.29,0,0,1,48.51-57.17Z"/><circle class="cls-5" cx="102.54" cy="173.19" r="8.03"/><path class="cls-5" d="M135.49,111.49a49,49,0,0,1,28.36,18.28,17.51,17.51,0,0,1-29-15.32A17.89,17.89,0,0,1,135.49,111.49Z"/><path class="cls-5" d="M84,131.65a17.51,17.51,0,0,1-8.61,26.13c.05-1.5.17-3,.37-4.53A49,49,0,0,1,84,131.65Z"/><circle class="cls-5" cx="115.57" cy="134.87" r="12.3"/></g></g></svg>