<svg xmlns="http://www.w3.org/2000/svg" viewBox="0 0 330.7 215.96"><defs><style>.cls-1{fill:#45368c;}.cls-2{fill:#d81e84;}.cls-3{fill:#b7247b;}.cls-4{fill:none;stroke:#1d1d1b;stroke-miterlimit:10;}.cls-5{fill:#be0c72;}.cls-6{fill:#82397e;}</style></defs><g id="Calque_2" data-name="Calque 2"><g id="Calque_4" data-name="Calque 4"><path class="cls-1" d="M117.39,179.57l-.58.58c-.45-.19-.89-.38-1.32-.58Z"/><path class="cls-1" d="M117.39,179.57l-.58.58c-.45-.19-.89-.38-1.32-.58Z"/><path class="cls-2" d="M330.7,33,286.9,131.2c-3.66-1.12-7.26-2-10.73-2.75-18.36-3.74-33.91-1.57-51.91.93-38.15,5.31-47,15.71-68.6,16.69-16.23.73-37.33-3.94-76.95-36.16A415.13,415.13,0,0,1,9,37.18L130.5,91.35,165.5,0l34.9,91.13Z"/><path class="cls-1" d="M117.39,179.57l-.58.58c-.45-.19-.89-.38-1.32-.58Z"/><polygon class="cls-3" points="249.33 215.44 249.33 215.46 249.32 215.46 249.33 215.44"/><path class="cls-1" d="M283.7,138.39l-34.37,77.05v0H81.66v-.16l-.29.29L0,33.15l7.17,3.19c18.69,24.82,39.57,55.93,60.11,86.55,14.34,21.37,23.44,36.38,33.42,46.26a49.85,49.85,0,0,0,14.79,10.42c.43.2.87.39,1.32.58a51.18,51.18,0,0,0,6.09,2.07c11.47,3.13,20.66,1.65,32.95-2.65,10.47-3.68,23.17-9.42,41.44-16.15,7.94-2.92,16.94-6,27.26-9.25,1.72-.54,3.48-1.07,5.27-1.61C252.43,145.75,269.35,140.74,283.7,138.39Z"/><polygon class="cls-4" points="249.33 215.44 249.33 215.46 249.32 215.46 249.33 215.44"/><path class="cls-5" d="M286.9,131.2l-3.2,7.19c-14.35,2.35-31.27,7.36-53.88,14.17-1.79.54-3.55,1.07-5.27,1.61-10.32,3.21-19.32,6.33-27.26,9.25-18.27,6.73-31,12.47-41.44,16.15-12.29,4.3-21.48,5.78-32.95,2.65a51.18,51.18,0,0,1-6.09-2.07l.58-.58h-1.9a49.85,49.85,0,0,1-14.79-10.42c-10-9.88-19.08-24.89-33.42-46.26C46.74,92.27,25.86,61.16,7.17,36.34L9,37.18a415.13,415.13,0,0,0,69.67,72.73c39.62,32.22,60.72,36.89,77,36.16,21.62-1,30.45-11.38,68.6-16.69,18-2.5,33.55-4.67,51.91-.93C279.64,129.16,283.24,130.08,286.9,131.2Z"/><path class="cls-6" d="M283.7,138.39l-34.37,77.05v0H81.66v-.16l-.29.29L0,33.15l7.17,3.19c18.69,24.82,39.57,55.93,60.11,86.55,14.34,21.37,23.44,36.38,33.42,46.26a49.85,49.85,0,0,0,14.79,10.42h1.9l-.58.58a51.18,51.18,0,0,0,6.09,2.07c11.47,3.13,20.66,1.65,32.95-2.65,10.47-3.68,23.17-9.42,41.44-16.15,7.94-2.92,16.94-6,27.26-9.25,1.72-.54,3.48-1.07,5.27-1.61C252.43,145.75,269.35,140.74,283.7,138.39Z"/></g><g id="Calque_4_-_copie" data-name="Calque 4 - copie"><path class="cls-1" d="M117.39,179.57l-.58.58c-.45-.19-.89-.38-1.32-.58Z"/><path class="cls-1" d="M117.39,179.57l-.58.58c-.45-.19-.89-.38-1.32-.58Z"/><path class="cls-2" d="M330.7,33,286.9,131.2c-3.66-1.12-7.26-2-10.73-2.75-18.36-3.74-33.91-1.57-51.91.93-38.15,5.31-47,15.71-68.6,16.69-16.23.73-37.33-3.94-76.95-36.16A415.13,415.13,0,0,1,9,37.18L130.5,91.35,165.5,0l34.9,91.13Z"/><path class="cls-1" d="M117.39,179.57l-.58.58c-.45-.19-.89-.38-1.32-.58Z"/><polygon class="cls-3" points="249.33 215.44 249.33 215.46 249.32 215.46 249.33 215.44"/><path class="cls-1" d="M283.7,138.39l-34.37,77.05v0H81.66v-.16l-.29.29L0,33.15l7.17,3.19c18.69,24.82,39.57,55.93,60.11,86.55,14.34,21.37,23.44,36.38,33.42,46.26a49.85,49.85,0,0,0,14.79,10.42c.43.2.87.39,1.32.58a51.18,51.18,0,0,0,6.09,2.07c11.47,3.13,20.66,1.65,32.95-2.65,10.47-3.68,23.17-9.42,41.44-16.15,7.94-2.92,16.94-6,27.26-9.25,1.72-.54,3.48-1.07,5.27-1.61C252.43,145.75,269.35,140.74,283.7,138.39Z"/><polygon class="cls-4" points="249.33 215.44 249.33 215.46 249.32 215.46 249.33 215.44"/><path class="cls-5" d="M286.9,131.2l-3.2,7.19c-14.35,2.35-31.27,7.36-53.88,14.17-1.79.54-3.55,1.07-5.27,1.61-10.32,3.21-19.32,6.33-27.26,9.25-18.27,6.73-31,12.47-41.44,16.15-12.29,4.3-21.48,5.78-32.95,2.65a51.18,51.18,0,0,1-6.09-2.07l.58-.58h-1.9a49.85,49.85,0,0,1-14.79-10.42c-10-9.88-19.08-24.89-33.42-46.26C46.74,92.27,25.86,61.16,7.17,36.34L9,37.18a415.13,415.13,0,0,0,69.67,72.73c39.62,32.22,60.72,36.89,77,36.16,21.62-1,30.45-11.38,68.6-16.69,18-2.5,33.55-4.67,51.91-.93C279.64,129.16,283.24,130.08,286.9,131.2Z"/><path class="cls-6" d="M283.7,138.39l-34.37,77.05v0H81.66v-.16l-.29.29L0,33.15l7.17,3.19c18.69,24.82,39.57,55.93,60.11,86.55,14.34,21.37,23.44,36.38,33.42,46.26a49.85,49.85,0,0,0,14.79,10.42h1.9l-.58.58a51.18,51.18,0,0,0,6.09,2.07c11.47,3.13,20.66,1.65,32.95-2.65,10.47-3.68,23.17-9.42,41.44-16.15,7.94-2.92,16.94-6,27.26-9.25,1.72-.54,3.48-1.07,5.27-1.61C252.43,145.75,269.35,140.74,283.7,138.39Z"/></g></g></svg>