<svg xmlns="http://www.w3.org/2000/svg" xmlns:xlink="http://www.w3.org/1999/xlink" viewBox="0 0 347.29 505.1"><defs><style>.cls-1,.cls-4,.cls-5{opacity:0.4;}.cls-2,.cls-4,.cls-5{fill:#f7f7f7;}.cls-3{fill:#c4c4c4;opacity:0.35;}.cls-4{stroke:#000;stroke-miterlimit:10;stroke-width:0.25px;}.cls-6{fill:#d14256;}.cls-12,.cls-7{fill:#def8fc;}.cls-10,.cls-7{opacity:0.65;}.cls-8{opacity:0.32;fill:url(#Dégradé_sans_nom_13);}.cls-11,.cls-9{opacity:0.45;}.cls-9{fill:url(#Dégradé_sans_nom_13-2);}.cls-10{fill:#e8f6f9;}.cls-11{fill:url(#Dégradé_sans_nom_13-3);}.cls-12{opacity:0.51;}</style><linearGradient id="Dégradé_sans_nom_13" x1="44.56" y1="145.47" x2="91.72" y2="173.82" gradientUnits="userSpaceOnUse"><stop offset="0" stop-color="#f4f4f4"/><stop offset="0.33" stop-color="#ebf2f5"/><stop offset="0.88" stop-color="#d1eef7"/><stop offset="0.99" stop-color="#cbedf7"/></linearGradient><linearGradient id="Dégradé_sans_nom_13-2" x1="131.49" y1="119.32" x2="174.53" y2="145.18" gradientTransform="translate(-5.72 68.09)" xlink:href="#Dégradé_sans_nom_13"/><linearGradient id="Dégradé_sans_nom_13-3" x1="189.6" y1="173.67" x2="234.25" y2="200.51" xlink:href="#Dégradé_sans_nom_13"/></defs><g id="Calque_2" data-name="Calque 2"><g id="Calque_2-2" data-name="Calque 2"><g class="cls-1"><ellipse class="cls-2" cx="173.64" cy="494.12" rx="147.53" ry="10.99"/></g><path class="cls-3" d="M347.29,11v0c0,6.07-77.74,11-173.65,11S0,17.05,0,11v0a.77.77,0,0,1,0-.15,1.07,1.07,0,0,1,.26-.44C5.4,4.59,81.06,0,173.64,0S341.89,4.59,347,10.36a1.07,1.07,0,0,1,.26.44A.77.77,0,0,1,347.29,11Z"/><rect class="cls-4" x="154.17" y="281.6" width="38.94" height="201.53"/><path class="cls-5" d="M173.64,22C77.74,22,0,17.05,0,11V138.59a142.88,142.88,0,0,0,143,143h61.54A142.6,142.6,0,0,0,347.29,138.86V11C347.29,17.05,269.55,22,173.64,22ZM236.31,142.6a9.2,9.2,0,0,1,12.11,4.75L255.23,163c-18.42,2.62-32.67,8.25-59.93,2.32-2.53-.55-4.86-1.13-7-1.75ZM62,103.76a9.2,9.2,0,0,1,12.78-2.41l54.1,36.94c-1.28-.27-2.61-.51-4-.75-34.44-5.9-62.8,1.81-74.53,5.13a144.13,144.13,0,0,0-19.74,7.07Z"/><path class="cls-6" d="M337.57,178.05a139.48,139.48,0,0,1-133.86,99.31H143.54c-68.31,0-125.18-48.66-137.38-113a127.05,127.05,0,0,1,24.48-14.63,144.13,144.13,0,0,1,19.74-7.07c11.73-3.32,40.09-11,74.53-5.13,1.39.24,2.72.48,4,.75,30,6.05,32.76,17.79,59.35,25.26,2.18.62,4.51,1.2,7,1.75,27.26,5.93,41.51.3,59.93-2.32,10.65-1.51,22.7-2,39.45,1.29C306.73,166.65,323.13,169.9,337.57,178.05Z"/><path class="cls-7" d="M128.91,138.29c-1.28-.27-2.61-.51-4-.75-34.44-5.9-62.8,1.81-74.53,5.13a144.13,144.13,0,0,0-19.74,7.07l31.39-46a9.2,9.2,0,0,1,12.78-2.41Z"/><path class="cls-8" d="M143.39,159.31l-3.53,5.17L124,187.75,98.21,225.48a9.21,9.21,0,0,1-12.78,2.41L19.26,182.71a9.2,9.2,0,0,1-2.41-12.78l13.79-20.19a144.13,144.13,0,0,1,19.74-7.07c11.73-3.32,40.09-11,74.53-5.13,1.39.24,2.72.48,4,.75L141,146.53A9.21,9.21,0,0,1,143.39,159.31Z"/><rect class="cls-9" x="120.57" y="169.63" width="73.5" height="73.5" rx="9.2" transform="translate(51.76 -30.68) rotate(13.31)"/><path class="cls-10" d="M255.23,163c-18.42,2.62-32.67,8.25-59.93,2.32-2.53-.55-4.86-1.13-7-1.75l48.05-21a9.2,9.2,0,0,1,12.11,4.75Z"/><path class="cls-11" d="M266.34,211.48l-52,22.67a9.19,9.19,0,0,1-12.11-4.75l-8.16-18.7-14.52-33.32a9.18,9.18,0,0,1,4.76-12.1l4-1.73c2.18.62,4.51,1.2,7,1.75,27.26,5.93,41.51.3,59.93-2.32l15.87,36.39A9.2,9.2,0,0,1,266.34,211.48Z"/><path class="cls-12" d="M31.21,128.42a8.68,8.68,0,0,1-2.17.27,14.84,14.84,0,0,1-2.85-.38c-2.57-.48-2.16-.3-3.12-.53a24.25,24.25,0,0,1-4.29-1.53c-1-.44-1.83-.85-2.4-1.15l4.71-92.38A10,10,0,0,1,26,30.16a15.23,15.23,0,0,1,3.5-.15,22.44,22.44,0,0,1,3,.35,8.85,8.85,0,0,1,2.85.86,5.77,5.77,0,0,1,.91.59c-2,14.94-3.52,31.09-4.41,48.34S30.82,113.44,31.21,128.42Z"/></g></g></svg>