<svg xmlns="http://www.w3.org/2000/svg" xmlns:xlink="http://www.w3.org/1999/xlink" viewBox="0 0 237.2 237.2"><defs><style>.cls-1{fill:#3b3b4f;opacity:0.21;}.cls-2{fill:#151549;opacity:0.9;}.cls-3{fill:#11114f;opacity:0.74;}.cls-4{fill:#f2f2f7;opacity:0.89;}.cls-5{fill:url(#Dégradé_sans_nom_50);}.cls-6{fill:url(#Dégradé_sans_nom_48);}.cls-7,.cls-8{fill:#e23737;}.cls-7{opacity:0.26;}.cls-10,.cls-8,.cls-9{opacity:0.3;}.cls-9{fill:#f2cf3b;}.cls-10{fill:#fff;}</style><linearGradient id="Dégradé_sans_nom_50" x1="57.24" y1="160.94" x2="223.11" y2="160.94" gradientUnits="userSpaceOnUse"><stop offset="0" stop-color="#4266ea"/><stop offset="0.23" stop-color="#3966e3"/><stop offset="0.57" stop-color="#2266d3"/><stop offset="0.95" stop-color="#5a2dba"/></linearGradient><linearGradient id="Dégradé_sans_nom_48" x1="59.49" y1="11.61" x2="151.38" y2="221.44" gradientUnits="userSpaceOnUse"><stop offset="0.57" stop-color="#2159d6"/><stop offset="1" stop-color="#5b41c9"/></linearGradient></defs><g id="Calque_2" data-name="Calque 2"><g id="Calque_2-2" data-name="Calque 2"><path class="cls-1" d="M118.61,0c-1.93,0-3.83,0-5.74.13a118.6,118.6,0,0,0,5.74,237.07l2.31,0A118.6,118.6,0,0,0,118.61,0Zm32.92,222.3c30.23-21.49,50.3-59.44,50.3-102.66S181.76,38.46,151.53,17a107.83,107.83,0,0,1,0,205.33Z"/><path class="cls-2" d="M227.16,119.67c0,9.08-4.82,33.86-9.39,44.07-.44,1-.9,1.95-.9,1.95A122.59,122.59,0,0,1,206,183.8c-5,6.71-23.47,24.18-53.71,38.53,30.22-21.49,50.3-59.43,50.3-102.66S182.52,38.49,152.3,17A107.83,107.83,0,0,1,227.16,119.67Z"/><path class="cls-3" d="M202.61,119.64c0,43.23-20.15,81.17-50.49,102.67a108.79,108.79,0,0,1-33.06,5.12c-19.3,0-95.2-27.06-106.8-90.26a85.56,85.56,0,0,1-1.43-17.53c1.45-53,53.87-107.79,108.23-107.79A108.79,108.79,0,0,1,152.12,17C182.46,38.47,202.61,76.42,202.61,119.64Z"/><path class="cls-4" d="M87.34,33.54A97.4,97.4,0,0,0,52.66,64.45a3.64,3.64,0,0,1-3.68.79,2.11,2.11,0,0,1-.55-.31,1.57,1.57,0,0,1-.24-.21,4.78,4.78,0,0,1-.25-6.11A90.66,90.66,0,0,1,82.83,27.73a4.87,4.87,0,0,1,4.55-.15A3.66,3.66,0,0,1,89,29,3.51,3.51,0,0,1,87.34,33.54Z"/><path class="cls-5" d="M223.11,145.2a63.36,63.36,0,0,0-9.4-8.52,67.94,67.94,0,0,0-30.86-12.26,83.88,83.88,0,0,0-29.67,1.13c-16.41,3.44-23.63,10.28-36.48,15.61a181.45,181.45,0,0,1-51.53,12.75c-4.26,13.93-8.15,26.86-7.92,26.93h0c.32-.14,1.29,1.41,10.59,8.75,13.58,10.71,31.47,9.27,52.23,7.31,18.64-1.76,42.87-4.33,68.9-20.75A134,134,0,0,0,223.11,145.2Z"/><path class="cls-6" d="M123.43,227.51c4.31-.13,40-3,69.85-29.57,6.29-5.61,23.84-22.65,29.07-49.52.26-1.35.59-2.45.76-3.22-21.27,15.85-39.46,19.06-48.19,19.88-10.39,1-22.18,0-28.91-.58-13.61-1.15-21.16-3.05-23.3-3.61a99.48,99.48,0,0,1-20.58-7.67c-16.61-8.67-22.64-17.71-30.25-23.91-16.76-13.67-56.1-6-61.07-5A103.63,103.63,0,0,0,19,159.26C35,196.07,75.57,228.93,123.43,227.51Z"/><path class="cls-7" d="M87.38,27.58l-1.32.74c-3.49,1.91-9,4.73-12.85,7.19a70.62,70.62,0,0,0-7.75,5.91c-2.73,2.29-4.77,4.17-5.74,5.08,0,0-6.4,6.07-10,12a9.71,9.71,0,0,0-1.59,5.11,10.32,10.32,0,0,0,.08,1.07,4.78,4.78,0,0,1-.25-6.11A90.66,90.66,0,0,1,82.83,27.73,4.87,4.87,0,0,1,87.38,27.58Z"/><path class="cls-8" d="M120.29,33.1,72.05,82a13.29,13.29,0,0,0-.39,18l1.09,1.21a11.67,11.67,0,0,0,8.41,3.9c4.18.09,7.52-2.65,8.59-3.53,4.86-4,35.38-35.31,76.59-78.94-2.85-1.42-5.38-2.5-7.4-3.29-3.66-1.44-6.53-2.3-8.53-2.9-3.21-.95-5.73-1.55-6.92-1.82s-2.32-.51-3.13-.67q-4.59,3.9-9.37,8.39Q125.2,27.82,120.29,33.1Zm-33,59.55c0,.13,0,.27,0,.4C87.32,92.92,87.32,92.78,87.31,92.65Z"/><path class="cls-9" d="M122,65.2,103.52,83.56l-.12.12L88.65,98.31A9.78,9.78,0,0,1,74.52,98a10.64,10.64,0,0,1,.32-14.62l10-9.88L97.44,61l13-12.84a2.14,2.14,0,0,1,2.73.36,2.32,2.32,0,0,1-.06,3.2h0L100.76,63.89l0,0-7,7A1.74,1.74,0,0,0,93.22,72a1.7,1.7,0,0,0,.44,1.18,1.57,1.57,0,0,0,2.26.05l6.56-6.51L111.32,58a1.92,1.92,0,0,1,2.52.29l.28.29a2.12,2.12,0,0,1-.06,2.9h0l-8.34,8.26-5.23,5.19a1.69,1.69,0,0,0,0,2.34l.53.57a1.56,1.56,0,0,0,2.26,0l3.15-3.12,12.79-12.67a2,2,0,0,1,2.94.06A2.22,2.22,0,0,1,122,65.2Z"/><path class="cls-10" d="M98.7,83.32a1.32,1.32,0,0,1-.19.64l-4.2,4.28-2,2.06-.05.06-.74.74-.42.43-1.19,1.21h0L86.68,96h0l-.19.21-.67.68a5.4,5.4,0,0,1-8-.17l-1.52-1.7a6.32,6.32,0,0,1,.18-8.5l.67-.68a5.89,5.89,0,0,1,.45-.42l2.92-3,2-2.06.49-.5,1.09-1.11h0L89.85,73a1.08,1.08,0,0,1,1.59,0,1.21,1.21,0,0,1,.31.86,1.19,1.19,0,0,1-.21.68,2.09,2.09,0,0,1-.14.17l-6.74,6.88a1.61,1.61,0,0,0,.11,2l.23.25a1.36,1.36,0,0,0,1.53.37L88.71,82l3-3.07a1.1,1.1,0,0,1,.44-.28,1.08,1.08,0,0,1,1.16.31,1.3,1.3,0,0,1,.31.86,1.32,1.32,0,0,1-.21.67,1.15,1.15,0,0,1-.14.17l-3,3.08-2.56,2.61a1.62,1.62,0,0,0,.11,2l.55.61a1.36,1.36,0,0,0,2,0l2.38-2.43h0l4-4.11a1.09,1.09,0,0,1,1.6,0A1.3,1.3,0,0,1,98.7,83.32Z"/></g></g></svg>