<svg xmlns="http://www.w3.org/2000/svg" viewBox="0 0 463.06 470.15"><defs><style>.cls-1{fill:#eb4654;}.cls-2{fill:#ff4e54;}.cls-3{fill:#c33446;}.cls-4{fill:#d83b4e;}.cls-5{fill:#e6e6e6;opacity:0.9;}.cls-6{fill:#f7f7f7;}</style></defs><g id="Calque_2" data-name="Calque 2"><g id="Calque_1-2" data-name="Calque 1"><path class="cls-1" d="M356.39,433.64c-92,59.06-215.85,46.13-293.48-36.36-76.57-81.36-82.83-203.51-21.06-291.5C12,197.68,31.7,300.15,102,370.42,169.64,438.09,267.19,458.85,356.39,433.64Z"/><path class="cls-2" d="M365.43,427.53q-4.47,3.18-9,6.11c-89.2,25.21-186.75,4.45-254.42-63.22C31.7,300.15,12,197.68,41.85,105.78A232.27,232.27,0,0,1,182.19,12.37c-12.56,20.9-18.43,46.79-18.1,75.88,0,1.28,0,2.57.08,3.86.59,20.06,4.07,41.57,10.28,64,.07.29.16.59.25.88C193.57,224.44,237.12,299.92,301.2,368A627.61,627.61,0,0,0,365.43,427.53Z"/><path class="cls-1" d="M390.2,407.24a232.36,232.36,0,0,1-24.77,20.29A628.57,628.57,0,0,1,301.21,368C182.94,242.34,134.62,91.54,182.2,12.38A231.38,231.38,0,0,1,400.15,80C487.78,173.08,483.32,319.61,390.2,407.24Z"/><circle class="cls-3" cx="265.17" cy="75.8" r="30.4"/><ellipse class="cls-4" cx="265.17" cy="78.48" rx="30.71" ry="28.33"/><circle class="cls-3" cx="61.46" cy="182.89" r="22.93"/><ellipse class="cls-4" cx="61.94" cy="184.85" rx="23.16" ry="21.37" transform="translate(-42.12 19.99) rotate(-13.73)"/><circle class="cls-3" cx="354.37" cy="189.58" r="32.27"/><ellipse class="cls-4" cx="354.04" cy="192.4" rx="30.07" ry="32.59" transform="translate(121.67 521.59) rotate(-83.3)"/><circle class="cls-3" cx="239.76" cy="211.33" r="28.88"/><ellipse class="cls-4" cx="238.97" cy="213.75" rx="26.92" ry="29.17" transform="translate(-38.9 373.69) rotate(-71.74)"/><circle class="cls-3" cx="351.14" cy="323.75" r="26.69"/><ellipse class="cls-4" cx="351.97" cy="325.95" rx="26.96" ry="24.87" transform="translate(-92.54 145.57) rotate(-20.72)"/><circle class="cls-3" cx="238.54" cy="361.03" r="37.94"/><ellipse class="cls-4" cx="239.72" cy="364.16" rx="38.32" ry="35.36" transform="translate(-113.31 108.34) rotate(-20.72)"/><circle class="cls-3" cx="127.26" cy="270.59" r="24.7"/><ellipse class="cls-4" cx="128.6" cy="272.31" rx="24.95" ry="23.02" transform="translate(-140.22 136.57) rotate(-37.93)"/><circle class="cls-3" cx="145.78" cy="125.76" r="41.74"/><ellipse class="cls-4" cx="147.08" cy="129.2" rx="42.16" ry="38.9" transform="translate(-42.92 82.04) rotate(-27.36)"/><path class="cls-5" d="M376.66,430.53c-3.76,4.61-124.89-47.61-179.76-168.94-45.44-100.48-22.89-198.48-16-228.3,1.55-6.76,7.44-31.9,12.07-31.46,10.43,1-19.91,127.91,24.18,243.29C265.31,371.2,380.38,426,376.66,430.53Z"/><rect class="cls-6" x="172.64" y="63.84" width="5.43" height="8.39" transform="translate(73.55 226.19) rotate(-78.44)"/><path class="cls-6" d="M186.77,67.6l-1.08,5.31-2-.41c.16-.92.27-1.84.34-2.74s.13-1.82.13-2.7Z"/><path class="cls-6" d="M211.67,85.62a34.62,34.62,0,0,1-2.9,8.42A34.09,34.09,0,0,0,184,63.21a39.17,39.17,0,0,0-1.63-8.6l-1.6,7.84c-1.12-.2-2.23-.34-3.34-.44A34.13,34.13,0,0,0,144.09,80.8a34.17,34.17,0,1,1,67.58,4.82Z"/><path class="cls-6" d="M200.65,26c0-.4-.09-.81-.14-1.21-.08-.74-.18-1.47-.29-2.18a34,34,0,0,0-10.16-3.73L193.59.07l0-.07a67.52,67.52,0,0,0-6.41,6.52l-.26.3-.83,1-.34.39-.33.41-.34.42c-.57.7-1.15,1.44-1.74,2.21l-.36.47-.42.57-.29.39-.39.54-.32.46-.33.47-.39.56-.35.52-.28.41q-.75,1.14-1.5,2.34c-.1.17-.21.34-.31.52h0c-.39.64-.77,1.29-1.15,1.95-.09.16-.18.31-.26.47a65.67,65.67,0,0,0-7.11,18.69,58,58,0,0,0-.93,6.3,69.79,69.79,0,0,0,.47,16.41c.26,1.85.58,3.63.93,5.32h.84c1.23,0,2.49.13,3.77.28,1.5.16,3,.4,4.59.72l2.86-14a39.17,39.17,0,0,1,1.63,8.6c.1,1.2.15,2.5.13,3.85,0,.88,0,1.78-.13,2.7.74.23,1.47.46,2.18.72s1.47.54,2.18.83c1.07-1.54,2.15-3.19,3.2-4.94a69.73,69.73,0,0,0,6.83-15.15q.82-2.69,1.41-5.5A65.43,65.43,0,0,0,200.65,26Z"/><path class="cls-6" d="M183.45,73.72A40.48,40.48,0,0,1,175,90.86l7.41-36.25a39.17,39.17,0,0,1,1.63,8.6c.1,1.2.15,2.5.13,3.85,0,.88,0,1.78-.13,2.7s-.18,1.82-.34,2.74C183.61,72.9,183.53,73.31,183.45,73.72Z"/><path class="cls-6" d="M182.38,54.61,175,90.86a40.43,40.43,0,0,1-1.07-19.1c.08-.4.17-.81.27-1.2.22-.92.48-1.8.76-2.65s.61-1.73.94-2.54c.5-1.2,1-2.32,1.57-3.36A39.34,39.34,0,0,1,182.38,54.61Z"/><path class="cls-6" d="M200.22,22.65a34,34,0,0,0-10.16-3.73L193.59.07l0,.06c.23.47,1,2.2,2,4.89l.14.38c.14.38.29.78.43,1.2l.15.41c.14.42.29.86.44,1.32s.29.9.44,1.37c.41,1.32.82,2.74,1.21,4.26l.27,1.1c.13.56.27,1.13.39,1.71.05.18.09.37.13.56l.12.57c0,.18.07.37.11.56s.08.39.11.59l.12.58c0,.2.07.4.1.59Q200,21.42,200.22,22.65Z"/><path class="cls-6" d="M190.06,18.92a33.55,33.55,0,0,0-11.69-.44c.1-.18.21-.35.31-.52q.75-1.2,1.5-2.34l.28-.41.35-.52.39-.56.33-.47.32-.46.39-.54.29-.39.42-.57.36-.47c.59-.77,1.17-1.51,1.74-2.21l.34-.42.33-.41.34-.39.83-1,.26-.3A67.52,67.52,0,0,1,193.56,0l0,.07Z"/><circle class="cls-6" cx="187.17" cy="30.93" r="6.96"/></g></g></svg>