<svg xmlns="http://www.w3.org/2000/svg" xmlns:xlink="http://www.w3.org/1999/xlink" viewBox="0 0 362.67 198.93"><defs><style>.cls-1{fill:none;}.cls-2{fill:#2c1638;}.cls-3{fill:#391941;}.cls-4{fill:#2c0f19;}.cls-5{fill:url(#Dégradé_sans_nom_69);}.cls-6{fill:#2d0f25;}.cls-7{fill:#472055;}</style><linearGradient id="Dégradé_sans_nom_69" y1="101.6" x2="362.67" y2="101.6" gradientUnits="userSpaceOnUse"><stop offset="0.06" stop-color="#29235c"/><stop offset="1" stop-color="#be1622"/></linearGradient></defs><g id="Calque_2" data-name="Calque 2"><g id="Calque_2-2" data-name="Calque 2"><path class="cls-1" d="M109.54,72.46a163.92,163.92,0,0,1-26.43,6.43A99.5,99.5,0,0,1,240.94,20.5c-7,3.27-13.92,6-19.27,8.06-18.26,7.12-23.21,5.51-43.23,11.48C141,51.18,139.69,62.33,109.54,72.46Z"/><path class="cls-2" d="M276.06,72c-24.27,12.28-55.51,26.6-90,41s-66.62,26.52-92.42,35.13A99.33,99.33,0,0,1,84.83,127c-.41-1.44-.8-2.89-1.14-4.35s-.61-2.69-.88-4a141.54,141.54,0,0,0,31.45-8.94C146.45,96.18,143.87,82,171.68,77.19c20.85-3.59,33.82,2.42,56.07-7.43,9-4,14.83-8.5,25.67-16.89,3.71-2.87,7.11-5.5,10.21-8,.44.68.88,1.36,1.31,2.05q1.19,1.9,2.29,3.86A99.41,99.41,0,0,1,276.06,72Z"/><path class="cls-1" d="M185.26,122.75q-3.91,1.64-7.8,3.22l6.39-2.64Z"/><path class="cls-3" d="M279.44,109.13a98.79,98.79,0,0,1-5.52,24.39,75,75,0,0,0-23.2,6.49c-20.32,9.5-18.24,20.84-37.38,28.37-17.57,6.92-23.82-.86-45.94,4.51C152,176.62,149,181.85,137,189a99.81,99.81,0,0,1-38.46-33c7.33.38,21.56-2.47,25.15-2.43,23.43.27,41,.24,58.09-10.8,14.09-9.1,15.38-17.59,30.4-23.65,17.58-7.09,26.48.23,47.29-2.7C267.62,115.23,272.17,113.28,279.44,109.13Z"/><path class="cls-1" d="M34.63,161.53a2.56,2.56,0,0,0,.37.17Zm2.08.55a18.66,18.66,0,0,0,2.87.06A21.61,21.61,0,0,1,36.71,162.08Zm2.87.06q1,0,2.25-.18C41,162.05,40.27,162.1,39.58,162.14Zm6.76-.81,1.3-.23Zm19.33-4.56,3.07-.87Z"/><path class="cls-1" d="M35,161.7a2.56,2.56,0,0,1-.37-.17Z"/><path class="cls-1" d="M39.58,162.14a18.66,18.66,0,0,1-2.87-.06A21.61,21.61,0,0,0,39.58,162.14Z"/><path class="cls-1" d="M41.83,162q-1.21.14-2.25.18C40.27,162.1,41,162.05,41.83,162Z"/><path class="cls-1" d="M47.64,161.1l-1.3.23Z"/><path class="cls-1" d="M68.74,155.9l-3.07.87Z"/><path class="cls-1" d="M276.06,72a99.41,99.41,0,0,0-8.83-21.16C302.06,39.19,325.32,34,327.11,38.25S308.83,55.4,276.06,72Z"/><path class="cls-1" d="M35,161.7a2.56,2.56,0,0,1-.37-.17Z"/><path class="cls-1" d="M39.58,162.14a18.66,18.66,0,0,1-2.87-.06A21.61,21.61,0,0,0,39.58,162.14Z"/><path class="cls-1" d="M41.83,162q-1.21.14-2.25.18C40.27,162.1,41,162.05,41.83,162Z"/><path class="cls-1" d="M47.64,161.1l-1.3.23Z"/><path class="cls-1" d="M68.74,155.9l-3.07.87Z"/><path class="cls-1" d="M276.06,72a99.41,99.41,0,0,0-8.83-21.16C302.06,39.19,325.32,34,327.11,38.25S308.83,55.4,276.06,72Z"/><path class="cls-4" d="M240.94,20.5c-7,3.27-13.92,6-19.27,8.06-18.26,7.12-23.21,5.51-43.23,11.48-37.4,11.14-38.75,22.29-68.9,32.42a163.92,163.92,0,0,1-26.43,6.43A99.5,99.5,0,0,1,240.94,20.5Z"/><path class="cls-1" d="M93.66,148.1q-4.65,1.56-9,3h0l-3.08,1-2,.63L78.5,153l-.91.28-1,.29-1,.3-2.84.85-1.85.54-.36.11-.85.25-1,.29-3.07.87-1.81.5-.77.21-2.14.57-1,.26-.78.2-1.16.3-1.12.28-1,.23-1.79.43-.62.14-.57.13-1.11.24-.55.12h-.07l-1.46.31-1.62.31-.45.09-1.3.23h0c-.53.09-1,.18-1.54.25l-.5.07c-.21,0-.43.06-.64.09l-.5.07-.49.06-.83.09c-.81.09-1.56.14-2.25.18a21.61,21.61,0,0,1-2.87-.06h-.05l-.38,0h0a3.3,3.3,0,0,1-.49-.09l-.44-.11-.16-.05L35,161.7l-.37-.17-.22-.13a1.33,1.33,0,0,1-.19-.14l-.14-.13L34,161l0-.07-.07-.11-.08-.16a1.58,1.58,0,0,1-.11-.58.57.57,0,0,1,0-.13,2,2,0,0,1,0-.23,1.21,1.21,0,0,1,0-.18,1.53,1.53,0,0,1,.08-.26,2.34,2.34,0,0,1,.09-.24c0-.08.08-.17.13-.25l.05-.11.15-.25,0,0,.15-.22a4.73,4.73,0,0,1,.28-.39c.1-.14.22-.29.35-.44s.51-.59.82-.91l.19-.19.22-.21c.07-.08.15-.15.22-.22l.49-.45.23-.22.74-.64.26-.22q.83-.69,1.8-1.44l.27-.2c.81-.62,1.7-1.27,2.66-1.93.21-.15.43-.31.66-.46.9-.63,1.86-1.27,2.88-1.94l1-.63c1-.63,2-1.28,3.09-1.94l.54-.34,1.68-1,.82-.49.75-.45,1.52-.9,1.88-1.09.88-.51q3.1-1.78,6.53-3.66l2-1.09c5.37-2.92,11.29-6,17.69-9.26A99.33,99.33,0,0,0,93.66,148.1Z"/><path class="cls-1" d="M185.26,122.75q-3.91,1.64-7.8,3.22l-2.59,1c-1.72.71-3.44,1.4-5.15,2.09l-2.56,1-5.09,2-5,2h0l-10,3.9-6,2.32-.26.1-2,.74-1.57.6-2.24.85-3.78,1.43-2.51.94-5.79,2.15-4.66,1.71-2.31.84-4.35,1.57L106.87,153q-4.22,1.5-8.3,2.92c23.53-8.35,57-21,85.28-32.62Z"/><path class="cls-2" d="M279.91,99.46q0,4.91-.47,9.67c-7.27,4.15-11.82,6.1-19.94,7.24-20.81,2.93-29.71-4.39-47.29,2.7-15,6.06-16.31,14.55-30.4,23.65-17.1,11-34.66,11.07-58.09,10.8-3.59,0-17.82,2.81-25.15,2.43q4.08-1.42,8.3-2.92l4.74-1.69,4.35-1.57,2.31-.84,4.66-1.71,5.79-2.15,2.51-.94L135,142.7l2.24-.85,1.57-.6,2-.74.26-.1,6-2.32,10-3.9h0l5-2,5.09-2,2.56-1c1.71-.69,3.43-1.38,5.15-2.09l2.59-1q3.89-1.59,7.8-3.22l4.18-1.73c32.68-13.64,63-27.37,88.75-40A99.64,99.64,0,0,1,279.91,99.46Z"/><path class="cls-1" d="M185.26,122.75q-3.91,1.64-7.8,3.22l-2.59,1c-1.72.71-3.44,1.4-5.15,2.09l-2.56,1-5.09,2-5,2h0l-10,3.9-6,2.32-.26.1-2,.74-1.57.6-2.24.85-3.78,1.43-2.51.94-5.79,2.15-4.66,1.71-2.31.84-4.35,1.57L106.87,153q-4.22,1.5-8.3,2.92c23.53-8.35,57-21,85.28-32.62Z"/><path class="cls-5" d="M278.19,81c-25.79,12.67-56.07,26.4-88.75,40l-4.18,1.73-1.41.58C155.54,135,122.1,147.6,98.57,156,42.6,175.38,3.2,184.43.18,177.2c-2.2-5.27,15.46-18.27,45.88-35.08,11-6.07,23.65-12.63,37.63-19.52.34,1.46.73,2.91,1.14,4.35-6.4,3.24-12.32,6.34-17.69,9.26l-2,1.09q-3.42,1.88-6.53,3.66l-.88.51-1.88,1.09-1.52.9-.75.45-.82.49-1.68,1-.54.34c-1.08.66-2.11,1.31-3.09,1.94l-1,.63c-1,.67-2,1.31-2.88,1.94-.23.15-.45.31-.66.46-1,.66-1.85,1.31-2.66,1.93l-.27.2q-1,.75-1.8,1.44l-.26.22-.74.64-.23.22-.49.45c-.07.07-.15.14-.22.22l-.22.21-.19.19c-.31.32-.58.62-.82.91s-.25.3-.35.44a4.73,4.73,0,0,0-.28.39l-.15.22,0,0-.15.25-.05.11c0,.08-.09.17-.13.25a2.34,2.34,0,0,0-.09.24,1.53,1.53,0,0,0-.08.26,1.21,1.21,0,0,0,0,.18,2,2,0,0,0,0,.23.57.57,0,0,0,0,.13,1.58,1.58,0,0,0,.11.58l.08.16.07.11,0,.07.1.11.14.13a1.33,1.33,0,0,0,.19.14l.22.13a2.56,2.56,0,0,0,.37.17l.15.06.16.05.44.11a3.3,3.3,0,0,0,.49.09h0l.38,0h.05a18.66,18.66,0,0,0,2.87.06q1,0,2.25-.18l.83-.09.49-.06.5-.07c.21,0,.43-.05.64-.09l.5-.07c.5-.07,1-.16,1.54-.25h0l1.3-.23.45-.09,1.62-.31,1.46-.31h.07l.55-.12L52.9,160l.57-.13.62-.14,1.79-.43,1-.23,1.12-.28,1.16-.3.78-.2,1-.26,2.14-.57.77-.21,1.81-.5,3.07-.87,1-.29.85-.25.36-.11,1.85-.54,2.84-.85,1-.3,1-.29.91-.28,1.07-.33,2-.63,3.08-1h0q4.36-1.4,9-3c25.8-8.61,58-20.74,92.42-35.13s65.71-28.71,90-41c32.77-16.58,52.84-29.44,51.05-33.73s-25.05.94-59.88,12.57q-1.11-1.95-2.29-3.86c55.52-19.23,94.55-28.16,97.55-21S331.36,54.86,278.19,81Z"/><path class="cls-6" d="M263.63,44.91c-3.1,2.46-6.5,5.09-10.21,8-10.84,8.39-16.65,12.9-25.67,16.89-22.25,9.85-35.22,3.84-56.07,7.43-27.81,4.78-25.23,19-57.42,32.42a141.54,141.54,0,0,1-31.45,8.94,100.44,100.44,0,0,1,.3-39.66,163.92,163.92,0,0,0,26.43-6.43C139.69,62.33,141,51.18,178.44,40c20-6,25-4.36,43.23-11.48,5.35-2.09,12.27-4.79,19.27-8.06A100.19,100.19,0,0,1,263.63,44.91Z"/><path class="cls-1" d="M240.94,20.5c-7,3.27-13.92,6-19.27,8.06-18.26,7.12-23.21,5.51-43.23,11.48-37.4,11.14-38.75,22.29-68.9,32.42a163.92,163.92,0,0,1-26.43,6.43A99.5,99.5,0,0,1,240.94,20.5Z"/><path class="cls-7" d="M273.92,133.52A99.54,99.54,0,0,1,137,189c12-7.13,15-12.36,30.37-16.09,22.12-5.37,28.37,2.41,45.94-4.51,19.14-7.53,17.06-18.87,37.38-28.37A75,75,0,0,1,273.92,133.52Z"/></g></g></svg>